<svg width="247" height="244" viewBox="0 0 247 244" fill="none" xmlns="http://www.w3.org/2000/svg">
<path d="M110.101 0.776763C106.268 1.25639 101.886 1.85592 100.365 2.15569C98.8432 2.45545 95.4962 3.17489 92.8795 3.71447C73.5277 7.79128 51.3766 20.4414 34.9458 36.6887C16.3243 55.1543 4.51846 78.3562 0.867179 103.776C-0.28906 111.87 -0.28906 131.954 0.867179 139.868C3.48393 157.434 9.20427 172.243 19.5496 188.13C38.0494 216.608 68.1725 236.093 102.799 242.028C109.249 243.167 123.003 243.707 131.583 243.167C141.381 242.568 147.405 241.489 156.777 238.731C193.837 227.64 221.161 203.718 236.497 168.885C239.783 161.451 241.852 154.856 243.677 145.863C247.085 128.777 247.024 113.309 243.312 95.5627C239.539 77.5768 229.559 57.9121 216.597 42.8039C204.426 28.655 186.231 15.7651 168.461 8.81049C158.298 4.85358 143.876 1.61611 131.401 0.53695C122.82 -0.242441 119.108 -0.182488 110.101 0.776763ZM140.833 6.17255C207.773 16.4245 252.562 79.6751 239.113 145.024C231.02 184.173 203.635 216.188 165.723 230.877C159.881 233.155 148.805 236.213 142.659 237.232C135.417 238.491 123.063 239.031 114.544 238.431C77.179 235.853 44.074 216.608 23.2009 185.253C-4.54889 143.585 -1.50615 87.1693 30.686 48.1398C49.6118 25.1777 78.2135 9.35006 107.059 5.93273C109.919 5.57302 113.205 5.15334 114.361 5.03344C118.438 4.55381 134.748 5.27325 140.833 6.17255Z" fill="#98C5E9"/>
<path d="M111.379 8.93059C89.4108 11.2088 67.0771 20.3816 50.1595 34.051C45.1086 38.1877 35.7369 47.4805 32.2682 51.8571C25.3308 60.5503 17.9065 74.2196 14.0727 85.0711C4.27506 112.71 6.28326 144.305 19.4279 171.044C37.5626 207.975 73.4669 231.956 114.909 234.834C146.858 237.052 178.076 226.141 201.323 204.558C235.645 172.783 247.085 123.201 229.985 80.6945C223.778 65.4065 216.11 53.8355 204.244 41.9648C180.145 17.8636 145.215 5.45331 111.379 8.93059ZM143.815 14.866C176.798 21.3409 204.73 41.665 220.431 70.6224C236.801 100.719 237.531 139.029 222.257 169.245C206.374 200.601 178.989 221.525 144.18 228.719C137.243 230.158 135.356 230.338 122.881 230.338C110.527 230.338 108.458 230.158 101.582 228.779C61.7219 220.685 29.9557 192.747 17.7239 155.096C9.08258 128.477 11.0908 99.6997 23.3834 74.5194C32.9376 54.9746 48.0296 38.8472 67.2597 27.6959C79.9175 20.3816 93.7923 15.8252 111.014 13.4271C112.049 13.3072 118.317 13.2472 125.011 13.3671C134.565 13.487 138.581 13.7868 143.815 14.866Z" fill="#98C5E9"/>
<path d="M131.157 22.36C126.35 24.0387 122.942 28.9548 122.881 34.2906C122.881 39.8063 127.202 45.2021 132.618 46.3412C135.904 47.0607 146.614 48.2597 146.918 47.9C147.223 47.6602 147.344 44.2429 147.101 44.2429C143.571 44.123 132.922 42.3244 131.522 41.6049C125.619 38.6073 125.619 29.4944 131.461 26.4967C133.774 25.3576 135.539 25.2977 142.354 26.197C149.9 27.1562 149.779 27.2162 149.535 24.878L149.353 22.9595L143.267 22.2401C135.295 21.3408 133.956 21.3408 131.157 22.36Z" fill="#98C5E9"/>
<path d="M96.1048 23.8588C94.34 24.3384 94.34 24.2185 96.1656 33.4513C97.9913 43.1038 98.3564 44.063 100.608 45.7417C103.042 47.5403 106.328 47.7202 113.144 46.3412C119.473 45.0223 119.838 44.9024 119.838 43.7633C119.777 41.1853 119.108 41.0654 112.536 42.3843C109.067 43.1038 105.842 43.6433 105.294 43.6433C102.799 43.5834 102.069 42.0246 100.243 33.0316C99.2692 28.1754 98.2955 23.9787 98.0521 23.7988C97.8087 23.619 96.9567 23.619 96.1048 23.8588Z" fill="#98C5E9"/>
<path d="M114.97 48.2595C100.182 50.5378 91.7841 53.7153 80.6477 61.0895C75.4751 64.5068 73.832 65.2862 70.4241 65.8858C68.1116 66.3054 66.286 66.7851 66.286 66.9649C66.286 67.1448 65.9209 69.1232 65.434 71.2816C64.7646 74.3991 63.8518 76.3176 61.1742 80.0947C56.0624 87.2291 52.7154 94.6633 49.7944 105.215C48.1513 111.21 47.5427 125.779 48.5773 132.973C50.1595 143.465 54.4193 154.317 60.5048 163.549C64.1561 169.065 74.8057 179.677 80.5868 183.634C88.5588 189.03 98.9041 193.226 109.858 195.325C113.144 195.984 117.526 197.003 119.534 197.663C123.063 198.742 123.185 198.742 126.532 197.603C128.358 196.943 132.252 196.044 135.234 195.564C166.331 190.528 190.795 167.267 197.124 136.63C198.523 129.916 198.828 116.186 197.732 110.671C194.933 97.0015 190.369 86.6895 182.518 76.3176C181.301 74.7588 180.449 72.6005 179.963 70.2623L179.293 66.6052L175.338 65.8858C172.477 65.3462 170.713 64.6268 168.887 63.1879C156.534 53.4755 139.251 47.72 122.881 47.9598C119.351 47.9598 115.822 48.1396 114.97 48.2595ZM138.703 53.2956C145.945 54.9743 148.501 55.8736 155.56 59.2909C165.297 64.0272 165.297 64.8666 155.438 63.008C147.223 61.4492 98.4781 61.4492 90.0802 63.008C81.7431 64.5668 81.8648 63.6075 90.6279 59.2909C98.1739 55.5139 106.633 52.9958 114.97 51.9766C120.873 51.3171 132.861 51.9766 138.703 53.2956ZM141.442 66.4253C152.152 67.0848 172.721 69.6628 173.451 70.4422C174.06 71.1616 176.311 83.6319 177.711 94.6033C178.806 103.057 178.928 106.654 178.685 119.184C178.198 143.705 175.459 152.638 163.897 167.566C155.56 178.238 142.354 187.651 128.175 192.927L122.82 194.965L119.656 193.826C104.503 188.55 89.9585 178.298 80.8911 166.427C74.258 157.794 70.7892 150.54 68.6593 140.767C66.8337 132.554 66.3468 108.692 67.7465 96.4019C68.781 87.4689 71.6412 71.2216 72.3106 70.5022C72.4932 70.2623 77.605 69.3631 83.5687 68.5237C100.547 66.1256 122.394 65.3462 141.442 66.4253ZM186.839 89.927C189.943 96.0422 191.403 99.7593 193.046 106.294C194.203 110.911 194.385 113.309 194.385 122.482C194.324 131.594 194.142 134.112 192.985 138.549C187.691 159.413 174.364 175.96 155.256 185.372C148.075 188.91 146.432 188.79 151.604 185.013C158.968 179.737 164.688 174.461 168.278 169.725C175.216 160.672 180.693 148.022 182.823 135.971C184.162 128.597 184.77 104.496 183.796 95.8024C183.431 92.3251 183.005 88.0085 182.762 86.2099C182.458 83.0923 182.458 82.9724 183.431 84.1115C183.979 84.771 185.5 87.4089 186.839 89.927ZM62.087 93.4043C61.0525 99.8792 61.2351 125.959 62.3913 133.393C64.6429 148.681 70.8501 162.53 79.9174 172.842C82.4733 175.78 93.9749 185.432 96.6525 186.931C97.2002 187.171 97.4436 187.591 97.2002 187.83C96.6525 188.37 87.4634 183.694 82.4125 180.336C66.712 169.785 55.8798 152.998 52.5328 133.933C51.8026 129.856 51.62 126.199 51.8634 119.484C52.2894 107.313 54.115 100.479 59.8354 89.5073L62.3304 84.7111L62.513 86.9893C62.6347 88.2483 62.4521 91.126 62.087 93.4043Z" fill="#98C5E9"/>
<path d="M119.23 80.7543C118.378 80.9941 116.795 81.4137 115.761 81.6536C114.605 81.9533 113.935 82.4329 114.179 82.7927C114.422 83.1524 114.239 83.2123 113.814 82.9725C113.388 82.6728 112.292 82.7927 111.379 83.2123C110.101 83.692 109.736 84.2315 109.919 85.0709C110.101 85.6704 110.527 86.0301 110.953 85.8503C111.318 85.6704 111.136 85.9102 110.588 86.3899C109.858 86.9294 108.397 87.1692 106.328 87.0493C104.564 86.9294 103.59 86.9894 104.198 87.1692C105.476 87.5889 105.476 87.8287 104.32 88.9678C103.529 89.8072 103.407 89.8072 103.407 88.9079C103.407 88.3084 103.103 88.0685 102.677 88.2484C102.251 88.4283 101.399 88.788 100.851 88.9678C99.2084 89.5074 99.5127 90.2269 101.582 90.5866C102.921 90.8863 103.407 91.306 103.407 92.2653C103.407 93.2245 103.103 93.4643 102.373 93.2245C100.365 92.6849 100.06 92.6849 97.2002 92.7449C94.4009 92.8048 94.2792 92.8648 94.2792 94.6034C94.2792 96.2821 94.1574 96.402 91.7233 96.462C90.2627 96.5219 89.5933 96.6418 90.2019 96.8217C91.7233 97.2414 91.6015 99.9992 90.0193 99.9992C89.1065 99.9992 88.8022 99.5796 88.7414 98.3205C88.6197 96.8217 88.6197 96.8217 88.3762 98.1407C88.1937 99.04 88.6197 100.059 89.5933 101.138C90.3845 101.978 91.2364 103.117 91.419 103.596C91.6015 104.076 91.7841 103.477 91.7841 102.277C91.845 100.119 91.9058 100.059 95.1311 99.3997C98.5998 98.6803 100.547 98.9201 102.434 100.299C103.955 101.438 103.225 102.997 101.156 103.057C100.243 103.057 99.8169 103.237 100.243 103.417C100.608 103.536 100.973 104.196 100.973 104.855C100.973 106.054 101.034 106.054 103.407 106.294C104.259 106.354 106.085 106.594 107.545 106.834C109.675 107.194 110.101 107.134 110.101 106.354C110.101 105.815 110.406 105.395 110.71 105.395C111.075 105.395 111.318 104.736 111.318 103.896C111.318 102.697 111.623 102.397 112.779 102.397C114.057 102.397 114.3 102.697 114.483 104.616C114.665 106.774 114.787 106.894 117.039 107.194C118.378 107.373 119.534 107.853 119.716 108.333C119.899 108.932 119.047 109.052 115.517 108.932L111.014 108.692L110.832 110.791C110.649 112.889 110.649 112.889 107.971 112.709C105.294 112.469 105.294 112.469 105.05 110.011L104.807 107.493L104.746 109.891L104.624 112.29H101.277C99.4518 112.29 97.9304 112.41 97.9304 112.649C97.9304 112.889 99.2084 113.009 100.851 113.009C104.381 112.889 107.667 114.868 107.667 117.086C107.667 118.345 107.971 118.525 110.284 118.705C112.353 118.825 113.083 118.645 114.118 117.446C114.97 116.426 116.065 116.007 117.891 115.887C119.29 115.827 120.264 115.947 120.082 116.247C119.899 116.546 120.508 116.486 121.359 116.187C122.211 115.887 122.82 115.827 122.637 116.127C122.455 116.426 123.55 116.666 125.011 116.666C127.445 116.726 127.749 116.606 127.81 115.407C127.81 114.568 127.932 114.448 128.175 114.988C129.818 120.024 131.035 120.383 147.223 120.383H160.489L160.915 117.625C161.28 115.047 161.158 114.688 159.455 112.949C157.142 110.551 157.081 110.191 159.333 110.191C162.436 110.191 162.802 110.551 162.68 113.848C162.558 116.306 162.741 116.786 163.471 116.546C163.958 116.366 164.688 116.187 165.053 116.187C165.601 116.187 165.601 116.067 165.114 115.707C164.019 115.047 163.775 110.791 164.81 110.791C165.114 110.791 165.236 111.33 165.053 112.05C164.749 113.069 164.931 113.249 165.844 113.069C166.575 112.949 166.94 112.41 166.818 111.75C166.696 111.091 166.879 110.791 167.427 110.911C167.852 111.091 168.218 112.05 168.218 113.069C168.218 114.148 168.461 114.928 168.826 114.808C169.191 114.688 169.435 112.35 169.435 109.412V104.196L166.392 104.136C164.749 104.136 162.01 103.896 160.307 103.716L157.264 103.297V99.1599V95.0831L153.978 94.2437C152.213 93.7641 150.509 93.2245 150.205 93.0447C149.9 92.8648 149.657 91.306 149.657 89.5674C149.657 87.8287 149.535 86.2699 149.353 86.0901C149.17 85.9102 147.77 86.0301 146.31 86.3899C144.302 86.8695 143.571 87.2891 143.571 88.1285C143.571 88.9079 143.997 89.2077 145.093 89.2077C146.188 89.2077 146.614 88.9079 146.614 88.0086C146.614 87.2292 147.04 86.8095 147.831 86.8095C148.744 86.8095 149.048 87.2292 149.048 88.3084C149.048 89.6873 148.866 89.8072 146.006 89.8072H142.963V87.7088C142.963 86.2699 142.659 85.6105 142.05 85.6105C141.563 85.6105 141.137 85.0709 141.137 84.4114C141.137 83.692 140.59 82.9725 139.798 82.6728C138.399 82.1931 132.861 82.6128 131.644 83.3322C131.279 83.5721 129.818 82.9725 128.297 81.9533C125.558 80.2147 122.698 79.795 119.23 80.7543ZM120.873 86.0301C120.751 86.9894 120.629 86.21 120.629 84.4114C120.629 82.6128 120.751 81.8334 120.873 82.7327C120.994 83.692 120.994 85.1308 120.873 86.0301ZM126.289 82.6128C127.567 82.6128 127.749 82.9126 127.749 84.7112C127.749 86.7496 127.688 86.8095 125.315 86.8095H122.881V84.3514C122.881 82.373 123.063 81.9533 123.855 82.2531C124.402 82.4329 125.498 82.6128 126.289 82.6128ZM136.147 84.4714C136.025 84.8311 135.66 85.0709 135.356 85.0709C135.052 85.0709 134.687 84.8311 134.565 84.4714C134.443 84.1116 134.808 83.8119 135.356 83.8119C135.904 83.8119 136.269 84.1116 136.147 84.4714ZM133.713 86.9894C133.896 88.9079 133.713 89.2077 132.678 89.2077C131.583 89.2077 131.401 88.8479 131.401 86.7496C131.401 84.7711 131.583 84.3514 132.496 84.5313C133.226 84.6512 133.591 85.3706 133.713 86.9894ZM118.621 87.529C118.621 88.2484 118.378 88.4882 117.952 88.2484C116.917 87.6489 111.927 87.529 111.927 88.1285C111.927 88.3683 112.231 88.6081 112.536 88.6081C113.266 88.6081 113.327 89.8072 112.657 90.8264C112.414 91.1861 111.197 91.6657 109.919 91.9055C107.606 92.3252 107.545 92.3252 107.789 90.6465C107.911 89.5074 108.397 88.8479 109.128 88.728C109.797 88.5482 110.71 88.1285 111.197 87.6489C111.623 87.1692 112.718 86.8095 113.509 86.8095C114.361 86.8095 114.909 86.5697 114.726 86.3299C114.605 86.0901 115.396 85.9702 116.552 86.0901C118.134 86.2699 118.621 86.6297 118.621 87.529ZM142.354 88.3084C142.354 89.3875 141.928 89.8671 140.711 90.1669C139.19 90.5866 139.19 90.6465 140.224 91.0662C141.928 91.7257 142.476 91.7257 142.05 91.0062C141.807 90.6465 142.537 90.4067 143.815 90.4067C145.884 90.4067 146.006 90.5266 146.006 92.5051V94.5435L141.32 94.7233C138.277 94.8432 136.573 95.143 136.391 95.6226C136.269 96.0423 136.573 96.402 137.121 96.402C138.764 96.402 138.338 99.2198 136.695 99.5196C135.478 99.7594 135.295 99.5796 135.539 98.3805C135.66 97.6011 135.599 97.0016 135.295 97.0615C134.078 97.2414 133.591 96.9416 134.382 96.462C135.052 96.0423 134.687 95.8025 132.983 95.5027C131.34 95.143 130.792 94.8432 131.035 94.1838C131.218 93.7041 131.401 92.5051 131.401 91.5458C131.401 89.9271 131.522 89.8671 133.409 90.2269C134.443 90.4067 135.599 90.7664 135.843 91.0062C136.999 92.0255 138.703 90.8863 138.703 89.2077C138.703 87.5889 139.312 87.1093 141.624 86.8695C141.989 86.8695 142.354 87.469 142.354 88.3084ZM106.268 88.728C106.085 89.2077 105.902 89.0278 105.902 88.3683C105.842 87.7088 106.024 87.3491 106.207 87.5889C106.389 87.7688 106.45 88.3084 106.268 88.728ZM125.984 88.9079C125.924 89.8072 124.524 89.6273 124.22 88.728C124.037 88.1884 124.341 87.9486 124.95 88.1285C125.558 88.1884 125.984 88.5482 125.984 88.9079ZM115.7 89.5074C115.7 89.8072 115.396 90.1669 115.031 90.2868C114.665 90.4067 114.361 90.047 114.361 89.5074C114.361 88.9678 114.665 88.6081 115.031 88.728C115.396 88.8479 115.7 89.2077 115.7 89.5074ZM148.927 91.9655C149.048 92.8648 148.683 93.3444 147.892 93.5842C146.797 93.824 146.614 93.5842 146.614 92.0854C146.614 90.7065 146.858 90.3468 147.71 90.5266C148.257 90.6465 148.805 91.306 148.927 91.9655ZM116.187 92.2653C116.187 93.7641 114.179 93.5842 113.874 92.0255C113.753 91.306 114.057 91.0062 114.909 91.0062C115.822 91.0062 116.187 91.366 116.187 92.2653ZM124.402 92.2053C124.22 92.5051 123.611 92.8048 123.124 92.8048C122.637 92.8048 122.272 92.5051 122.272 92.2053C122.272 91.8456 122.82 91.6058 123.55 91.6058C124.22 91.6058 124.585 91.8456 124.402 92.2053ZM112.536 94.6034C112.536 96.462 112.292 97.0016 111.501 97.0016C110.892 97.0615 111.805 97.5411 113.448 98.0807C116.187 98.98 116.491 99.2798 116.674 101.018C116.856 102.937 116.065 103.656 115.274 102.397C115.091 102.038 114.239 101.798 113.388 101.798C111.562 101.798 111.44 100.299 113.327 99.6995C114.179 99.4596 114.361 99.2198 113.874 98.98C112.901 98.6203 111.318 99.8194 111.318 100.958C111.318 101.438 110.832 101.798 110.284 101.798C109.371 101.798 109.31 101.678 110.101 101.198C110.771 100.779 110.771 100.599 110.223 100.599C109.797 100.599 109.615 100.299 109.797 99.9992C110.284 99.2198 109.067 97.6011 108.032 97.6011C107.667 97.6011 107.789 97.9009 108.276 98.2006C109.067 98.6803 109.006 98.8002 108.154 98.8002C107.545 98.8002 107.059 98.5004 107.059 98.1407C107.059 97.8409 106.815 97.721 106.45 97.9009C106.146 98.0807 105.842 98.8002 105.842 99.4596C105.842 100.059 105.416 100.599 104.929 100.599C104.442 100.599 104.016 100.059 104.016 99.3997C104.016 98.7402 104.32 98.2006 104.624 98.2006C104.99 98.2006 105.233 97.9009 105.233 97.6011C105.233 97.2414 104.685 97.0016 104.077 97.0016C103.225 97.0016 102.981 97.3013 103.225 98.2006C103.468 99.04 103.225 99.3997 102.555 99.3997C101.764 99.3997 101.643 98.98 101.947 96.8217C102.19 95.3828 102.129 94.4835 101.825 94.7833C101.521 95.0831 101.277 95.6226 101.277 95.9824C101.277 96.5819 100.243 96.7018 97.9304 96.462C97.6262 96.402 97.3219 96.1622 97.3219 95.8625C97.3219 95.5627 97.9304 95.4428 98.6607 95.6826C99.7561 95.9224 99.8778 95.8025 99.5735 94.6634C99.2692 93.4643 99.3909 93.3444 100.547 93.6442C101.277 93.824 102.069 94.0039 102.251 94.0039C102.495 94.0039 102.86 94.6034 103.103 95.3229C103.59 96.6418 103.59 96.6418 103.833 95.0831C104.016 94.0639 104.442 93.4643 105.111 93.5243C105.659 93.5243 107.363 93.2245 108.884 92.9247C110.406 92.625 111.805 92.3252 112.11 92.2653C112.353 92.2053 112.536 93.2845 112.536 94.6034ZM96.7133 94.6034C96.7133 95.2629 96.2874 95.8025 95.8005 95.8025C95.3137 95.8025 94.8877 95.2629 94.8877 94.6034C94.8877 93.944 95.3137 93.4044 95.8005 93.4044C96.2874 93.4044 96.7133 93.944 96.7133 94.6034ZM124.707 94.3037C124.707 94.7833 124.95 95.203 125.315 95.203C125.619 95.203 125.741 94.7833 125.558 94.3037C125.011 92.9847 125.619 93.1646 127.506 94.9032C128.358 95.6826 129.392 96.2222 129.757 95.9824C130.123 95.8025 130.183 95.9224 129.94 96.2821C129.392 97.1814 125.924 97.2414 125.924 96.402C125.924 96.0423 124.828 95.8025 123.55 95.8025C119.108 95.8025 117.465 94.2437 121.542 93.824C122.759 93.7041 123.976 93.5842 124.281 93.5243C124.524 93.4643 124.707 93.824 124.707 94.3037ZM129.271 94.6034C129.453 94.9032 129.331 95.203 129.027 95.203C128.662 95.203 128.358 94.9032 128.358 94.6034C128.358 94.2437 128.479 94.0039 128.601 94.0039C128.784 94.0039 129.088 94.2437 129.271 94.6034ZM140.833 96.462C140.833 96.8817 140.346 97.3613 139.798 97.4812C138.703 97.661 138.277 96.402 139.129 95.5627C139.738 94.9632 140.833 95.5027 140.833 96.462ZM143.571 96.462C143.571 96.7618 143.145 97.0016 142.659 97.0016C141.746 97.0016 141.442 96.2821 142.111 95.6226C142.598 95.143 143.571 95.6826 143.571 96.462ZM153.308 96.462C153.308 97.3613 153.004 97.661 151.969 97.4812C149.9 97.1814 149.718 95.203 151.726 95.203C152.943 95.203 153.308 95.5027 153.308 96.462ZM156.229 97.1814C156.412 98.5603 156.229 98.8601 155.316 98.6803C154.647 98.5603 154.16 97.8409 154.038 96.8217C153.856 95.4428 154.038 95.143 154.951 95.3229C155.621 95.4428 156.108 96.1622 156.229 97.1814ZM119.23 96.7618C119.23 97.2414 118.986 97.4812 118.621 97.3013C118.317 97.1215 118.012 96.7018 118.012 96.3421C118.012 96.0423 118.317 95.8025 118.621 95.8025C118.986 95.8025 119.23 96.2222 119.23 96.7618ZM132.8 96.8217C132.374 96.9416 131.644 96.9416 131.279 96.8217C130.853 96.6418 131.157 96.5219 132.009 96.5219C132.861 96.5219 133.165 96.6418 132.8 96.8217ZM94.2792 97.9009C94.2792 98.3805 93.7315 98.8002 93.0621 98.8002C92.3927 98.8002 91.845 98.3805 91.845 97.9009C91.845 97.4212 92.3927 97.0016 93.0621 97.0016C93.7315 97.0016 94.2792 97.4212 94.2792 97.9009ZM100.973 98.2006C100.973 98.5004 100.73 98.8002 100.425 98.8002C100.06 98.8002 99.6344 98.5004 99.4518 98.2006C99.2692 97.8409 99.5127 97.6011 99.9995 97.6011C100.547 97.6011 100.973 97.8409 100.973 98.2006ZM142.963 98.2606C142.963 97.4212 146.006 97.5411 150.265 98.6203C152.213 99.0999 152.395 99.3397 152.578 101.618C152.761 103.836 152.578 104.136 150.813 105.035C149.718 105.575 148.44 105.995 147.892 105.995C147.101 105.995 146.979 106.534 147.101 108.992C147.405 112.589 146.249 113.489 144.058 111.27C143.267 110.551 142.111 109.772 141.442 109.712C140.772 109.592 139.433 109.052 138.46 108.513C137.121 107.733 136.634 107.673 136.451 108.213C136.147 109.112 134.443 109.232 134.443 108.393C134.443 107.433 132.739 107.733 132.131 108.752C131.827 109.292 131.401 109.472 131.218 109.172C130.366 107.793 132.07 107.074 136.877 106.774C140.772 106.474 141.989 106.594 142.415 107.254C142.78 107.853 142.963 107.853 142.963 107.314C142.963 106.954 143.693 106.534 144.667 106.534C146.006 106.474 146.067 106.414 144.971 106.174C143.997 105.995 143.571 105.395 143.45 104.016C143.267 102.337 143.085 102.098 141.685 102.277C140.772 102.397 139.738 102.038 139.251 101.438C138.521 100.599 138.642 100.299 140.224 99.04C141.502 98.0208 142.111 97.8409 142.476 98.3805C142.841 98.9201 142.963 98.9201 142.963 98.2606ZM130.792 99.3397C130.792 100.059 131.157 100.599 131.583 100.659C132.192 100.659 132.192 100.779 131.583 101.018C131.157 101.138 130.792 101.738 130.792 102.277C130.792 103.117 130.062 103.297 126.289 103.297C123.794 103.297 121.542 103.117 121.299 102.817C121.055 102.577 120.325 102.397 119.716 102.397C119.108 102.397 118.621 102.098 118.621 101.798C118.621 101.438 119.23 101.198 120.021 101.198C121.177 101.138 121.055 101.018 119.473 100.359C115.883 98.8002 116.674 98.3805 123.794 98.2606C130.488 98.1407 130.792 98.2006 130.792 99.3397ZM133.713 104.016C133.47 105.335 132.374 105.215 132.131 103.956C132.009 103.357 132.313 102.997 132.922 102.997C133.53 102.997 133.835 103.417 133.713 104.016ZM137.79 104.076C137.79 105.155 136.573 104.975 136.391 103.836C136.208 103.237 136.451 102.937 136.999 103.117C137.425 103.297 137.79 103.716 137.79 104.076ZM142.963 104.616C142.963 105.755 142.78 106.054 142.354 105.635C141.989 105.275 141.868 104.556 142.111 104.016C142.659 102.577 142.963 102.757 142.963 104.616ZM105.355 104.496C105.355 104.795 105.05 105.155 104.685 105.275C104.32 105.395 104.016 105.035 104.016 104.496C104.016 103.956 104.32 103.596 104.685 103.716C105.05 103.836 105.355 104.196 105.355 104.496ZM108.884 104.496C108.884 104.975 108.641 105.395 108.337 105.395C107.545 105.395 106.998 104.436 107.485 103.956C108.154 103.297 108.884 103.596 108.884 104.496ZM118.012 104.496C118.012 104.975 117.587 105.395 117.1 105.395C116.613 105.395 116.187 104.975 116.187 104.496C116.187 104.016 116.613 103.596 117.1 103.596C117.587 103.596 118.012 104.016 118.012 104.496ZM127.141 105.455C127.141 105.755 126.715 105.995 126.228 105.995C125.68 105.995 125.498 105.635 125.68 105.095C126.045 104.196 127.141 104.436 127.141 105.455ZM156.473 106.654C156.716 108.992 156.594 109.232 154.708 109.951C153.612 110.431 152.152 110.791 151.483 110.791C150.326 110.791 150.205 110.491 150.387 108.273C150.57 106.054 150.813 105.695 152.7 105.035C155.925 103.896 156.229 104.016 156.473 106.654ZM164.749 105.155L168.522 105.575V107.553V109.592H163.045H157.568V106.834C157.568 104.136 157.629 104.076 159.272 104.376C160.185 104.556 162.619 104.915 164.749 105.155ZM127.384 107.853C127.993 106.894 128.966 107.014 128.966 108.093C128.966 108.752 128.236 108.992 126.228 108.992C124.707 108.992 123.489 108.752 123.489 108.453C123.489 107.673 126.106 107.314 126.593 107.973C126.836 108.273 127.202 108.213 127.384 107.853ZM120.142 110.191C118.499 110.911 116.065 110.911 114.97 110.191C114.3 109.772 115.152 109.592 117.708 109.652C120.325 109.652 120.994 109.832 120.142 110.191ZM125.011 110.791C124.281 111.091 124.159 111.33 124.646 111.33C125.132 111.39 125.376 111.57 125.132 111.75C124.585 112.29 123.429 111.39 123.794 110.731C124.037 110.431 124.646 110.191 125.193 110.251C126.045 110.251 125.984 110.371 125.011 110.791ZM128.297 111.81C128.236 113.129 128.175 113.189 127.932 112.29C127.749 111.63 127.323 110.911 126.897 110.671C126.471 110.371 126.593 110.191 127.323 110.191C128.054 110.191 128.358 110.611 128.297 111.81ZM114.787 113.609C114.605 114.208 114.483 113.728 114.483 112.589C114.483 111.45 114.605 110.971 114.787 111.51C114.909 112.11 114.909 113.069 114.787 113.609ZM136.877 112.35C136.877 113.669 136.634 113.848 135.234 113.669C134.017 113.549 133.47 113.129 133.348 112.11C133.165 110.971 133.409 110.791 134.991 110.791C136.634 110.791 136.877 111.031 136.877 112.35ZM156.168 111.151C155.986 111.33 155.438 111.39 155.012 111.21C154.525 111.031 154.708 110.851 155.377 110.851C156.047 110.791 156.412 110.971 156.168 111.151ZM113.57 113.309C113.388 113.788 113.205 113.609 113.205 112.949C113.144 112.29 113.327 111.93 113.509 112.17C113.692 112.35 113.753 112.889 113.57 113.309ZM158.663 113.549C159.82 114.328 160.002 114.988 159.881 116.966L159.698 119.484L156.534 119.664C153.308 119.844 153.308 119.844 153.308 118.105C153.308 117.026 152.943 116.187 152.335 115.947C150.935 115.407 150.265 116.067 150.265 118.045C150.265 119.184 149.961 119.784 149.353 119.784C147.953 119.784 148.075 114.508 149.535 113.429C150.996 112.29 156.959 112.35 158.663 113.549ZM122.698 114.508C122.516 114.988 122.333 114.808 122.333 114.148C122.272 113.489 122.455 113.129 122.637 113.369C122.82 113.549 122.881 114.088 122.698 114.508ZM137.486 117.086C137.486 118.165 137.182 118.585 136.269 118.585C135.356 118.585 135.052 118.165 135.052 117.086C135.052 116.007 135.356 115.587 136.269 115.587C137.182 115.587 137.486 116.007 137.486 117.086ZM141.989 116.666C142.476 117.446 141.32 118.765 140.59 118.345C139.616 117.745 139.738 116.187 140.772 116.187C141.259 116.187 141.807 116.426 141.989 116.666Z" fill="#98C5E9"/>
<path d="M109.919 89.6274C109.189 90.2869 109.432 91.0063 110.406 91.0063C110.892 91.0063 111.318 90.5867 111.318 90.1071C111.318 89.1478 110.588 88.908 109.919 89.6274Z" fill="#98C5E9"/>
<path d="M133.835 92.4451C133.835 93.4643 134.139 94.0039 134.808 94.0039C135.417 94.0039 135.66 93.5842 135.539 92.6849C135.234 90.7664 133.835 90.5866 133.835 92.4451Z" fill="#98C5E9"/>
<path d="M143.571 92.2052C143.571 92.8647 143.997 93.4043 144.484 93.4043C144.971 93.4043 145.397 92.8647 145.397 92.2052C145.397 91.5457 144.971 91.0062 144.484 91.0062C143.997 91.0062 143.571 91.5457 143.571 92.2052Z" fill="#98C5E9"/>
<path d="M137.729 92.6249C137.973 94.1237 139.312 94.3036 139.312 92.8647C139.312 92.1453 138.946 91.6057 138.46 91.6057C137.973 91.6057 137.669 92.0853 137.729 92.6249Z" fill="#98C5E9"/>
<path d="M140.285 92.0255C139.555 92.7449 139.92 94.0039 140.833 94.0039C141.32 94.0039 141.746 93.6442 141.746 93.1646C141.746 92.1454 140.894 91.4859 140.285 92.0255Z" fill="#98C5E9"/>
<path d="M109.493 94.6034C109.493 95.2629 109.919 95.8025 110.406 95.8025C110.892 95.8025 111.318 95.2629 111.318 94.6034C111.318 93.9439 110.892 93.4044 110.406 93.4044C109.919 93.4044 109.493 93.9439 109.493 94.6034Z" fill="#98C5E9"/>
<path d="M105.963 94.963C106.207 96.2221 107.302 96.342 107.545 95.023C107.667 94.4235 107.363 94.0038 106.754 94.0038C106.146 94.0038 105.842 94.3635 105.963 94.963Z" fill="#98C5E9"/>
<path d="M146.918 99.9394C148.136 100.179 148.805 100.779 149.109 101.798C149.474 103.177 149.535 103.117 149.596 101.318C149.657 99.4598 149.596 99.3998 147.405 99.4598C145.214 99.5197 145.154 99.5797 146.918 99.9394Z" fill="#98C5E9"/>
<path d="M160.002 107.194C160.002 108.692 160.246 108.992 161.402 108.992C163.288 108.992 163.532 108.692 163.167 106.894C162.984 105.815 162.497 105.395 161.463 105.395C160.246 105.395 160.002 105.695 160.002 107.194Z" fill="#98C5E9"/>
<path d="M154.525 114.688C154.525 115.167 154.951 115.587 155.438 115.587C155.925 115.587 156.351 115.167 156.351 114.688C156.351 114.208 155.925 113.789 155.438 113.789C154.951 113.789 154.525 114.208 154.525 114.688Z" fill="#98C5E9"/>
<path d="M144.058 86.0301C144.484 86.2099 145.032 86.15 145.215 85.9701C145.458 85.7903 145.093 85.6104 144.423 85.6704C143.754 85.6704 143.571 85.8502 144.058 86.0301Z" fill="#98C5E9"/>
<path d="M98.539 89.8072C98.539 90.1669 97.687 90.3468 96.5917 90.2269C95.4963 90.107 95.0703 90.107 95.6788 90.2269C96.2265 90.3468 96.7134 90.8864 96.7134 91.366C96.7134 91.8456 97.2611 92.2053 97.9305 92.2053C98.8433 92.2053 99.1476 91.7857 99.1476 90.7065C99.1476 89.8671 99.0259 89.2077 98.8433 89.2077C98.6607 89.2077 98.539 89.5074 98.539 89.8072Z" fill="#98C5E9"/>
<path d="M95.0703 100.419C94.6443 100.539 94.2792 101.258 94.34 101.978C94.34 103.237 94.4009 103.237 94.8269 102.098C95.0703 101.438 95.9831 100.719 96.7742 100.539C97.9305 100.179 97.9913 100.119 97.0176 100.119C96.3482 100.119 95.4354 100.239 95.0703 100.419Z" fill="#98C5E9"/>
<path d="M97.9913 107.314C97.9913 108.273 98.113 108.393 98.3564 107.793C98.539 107.314 99.0258 106.714 99.3909 106.474C99.8169 106.174 99.6344 105.995 99.0258 105.995C98.2956 105.995 97.9304 106.414 97.9913 107.314Z" fill="#98C5E9"/>
<path d="M80.6477 108.213C79.9174 108.932 80.2826 109.532 81.6822 109.712C82.8385 109.892 83.021 110.251 83.021 112.47C83.021 114.088 83.2644 114.988 83.8121 114.988C84.1773 114.988 84.5424 114.748 84.5424 114.508C84.5424 114.208 85.4552 114.088 86.5506 114.208C89.9585 114.448 91.845 113.848 91.845 112.41C91.845 111.39 91.2973 110.911 89.4108 110.311C88.072 109.951 86.6114 109.592 86.0638 109.592C85.5769 109.592 85.3335 109.232 85.5161 108.752C85.7595 108.153 85.2118 107.913 83.447 107.913C82.1082 107.913 80.8303 108.033 80.6477 108.213ZM86.0029 111.69C85.6378 112.649 83.9338 112.949 83.9338 112.11C83.9338 111.33 84.6032 110.791 85.5161 110.791C86.0029 110.791 86.1855 111.151 86.0029 111.69Z" fill="#98C5E9"/>
<path d="M99.1475 108.992C99.1475 109.771 99.5735 110.191 100.365 110.191C101.156 110.191 101.582 109.771 101.582 108.992C101.582 108.213 101.156 107.793 100.365 107.793C99.5735 107.793 99.1475 108.213 99.1475 108.992Z" fill="#98C5E9"/>
<path d="M106.45 109.292C106.45 109.771 106.876 110.191 107.363 110.191C107.85 110.191 108.276 109.771 108.276 109.292C108.276 108.812 107.85 108.393 107.363 108.393C106.876 108.393 106.45 108.812 106.45 109.292Z" fill="#98C5E9"/>
<path d="M160.124 112.11C160.489 113.189 161.828 113.369 161.828 112.35C161.828 111.81 161.402 111.39 160.854 111.39C160.306 111.39 160.002 111.69 160.124 112.11Z" fill="#98C5E9"/>
<path d="M86.6115 115.887C86.4289 116.367 86.368 117.086 86.5506 117.506C86.7332 117.985 86.9157 117.865 86.9157 117.206C86.9766 116.606 87.5851 115.887 88.3762 115.587L89.715 115.048H88.3154C87.5851 114.988 86.794 115.407 86.6115 115.887Z" fill="#98C5E9"/>
<path d="M94.9485 116.606C95.0702 118.045 95.0702 118.105 95.3137 116.906C95.4962 116.007 95.9831 115.587 97.0176 115.587C98.0521 115.587 98.539 116.007 98.7215 116.906C98.9649 118.105 98.9649 118.045 99.0867 116.606C99.1475 115.107 98.9649 114.988 97.0176 114.988C95.0702 114.988 94.8877 115.107 94.9485 116.606Z" fill="#98C5E9"/>
<path d="M117.161 134.772C115.517 135.252 114.422 136.271 114.361 137.23C114.361 137.89 122.881 138.429 126.836 138.01C130.123 137.65 130.609 137.47 130.366 136.511C130.183 135.971 129.636 135.252 129.088 135.072C127.323 134.353 118.986 134.173 117.161 134.772Z" fill="#98C5E9"/>
<path d="M104.259 142.986C101.095 146.103 98.4781 156.355 100.608 157.135C101.338 157.434 101.825 157.075 102.312 155.876C102.738 154.976 103.712 153.238 104.503 151.979C105.537 150.3 105.781 149.161 105.537 147.902C105.111 145.923 105.659 143.585 106.511 144.065C106.815 144.305 107.059 143.885 107.059 143.226C107.059 141.667 105.72 141.607 104.259 142.986Z" fill="#98C5E9"/>
<path d="M137.486 142.386C137.669 145.444 140.894 154.137 143.45 158.094C143.511 158.274 143.997 157.974 144.545 157.494C146.736 155.276 141.989 142.506 138.825 142.086C138.095 141.966 137.486 142.086 137.486 142.386Z" fill="#98C5E9"/>
<path d="M117.586 148.621C115.152 150.24 113.144 151.978 113.144 152.458C113.144 152.938 113.814 155.456 114.665 158.094L116.248 162.95H121.846C125.558 162.95 127.81 163.19 128.297 163.669C128.784 164.089 128.966 164.149 128.784 163.789C128.601 163.429 129.21 160.672 130.244 157.554C131.218 154.496 132.009 151.918 131.887 151.859C131.035 151.079 122.577 145.563 122.333 145.623C122.151 145.683 119.96 147.002 117.586 148.621Z" fill="#98C5E9"/>
<path d="M103.347 166.847C103.286 167.326 103.225 168.106 103.164 168.466C103.103 168.885 103.407 169.185 103.833 169.125C104.259 169.005 104.442 169.305 104.259 169.725C103.894 170.804 108.58 175.18 109.554 174.641C110.041 174.341 110.162 174.401 109.858 174.821C109.615 175.24 110.406 175.96 111.866 176.739C114.726 178.118 115.578 178.238 116.978 177.159C117.952 176.499 117.708 176.14 114.787 173.082C112.901 171.044 110.041 168.885 107.789 167.806C103.468 165.648 103.407 165.648 103.347 166.847ZM113.448 176.14C114.361 176.499 114.97 176.919 114.787 177.099C114.422 177.459 110.71 175.72 110.71 175.18C110.71 175 110.953 175 111.258 175.18C111.501 175.36 112.536 175.78 113.448 176.14Z" fill="#98C5E9"/>
<path d="M136.573 167.986C134.565 169.005 131.583 171.283 129.879 173.022L126.836 176.26L128.297 177.399C129.392 178.298 129.879 178.418 130.244 177.878C130.488 177.459 131.279 177.039 132.009 176.919C135.6 176.38 141.989 170.204 141.624 167.686C141.381 165.768 140.711 165.828 136.573 167.986Z" fill="#98C5E9"/>
<path d="M18.8193 116.786C18.8193 117.146 20.5233 117.386 22.714 117.386C26.8522 117.386 28.8604 118.405 28.191 120.083C27.8867 120.743 26.8522 120.983 24.2963 120.983C19.9756 120.983 18.8193 121.882 18.8193 125.239V127.578H24.2963C28.7387 127.578 29.7732 127.398 29.7732 126.678C29.7732 125.959 28.7995 125.779 24.844 125.779C20.0973 125.779 19.9756 125.719 20.1581 124.4C20.3407 123.261 20.7667 123.021 24.0528 122.781C26.1219 122.602 28.191 122.122 28.7387 121.642C30.1992 120.503 30.0775 117.565 28.6169 116.786C27.0956 116.007 18.8193 116.007 18.8193 116.786Z" fill="#98C5E9"/>
<path d="M33.4245 117.386C32.0248 118.764 31.7205 124.28 32.9985 125.959C33.8504 127.158 37.5017 127.877 39.7533 127.338C42.3092 126.738 43.1612 125.359 43.1612 121.822C43.1612 117.505 41.8833 116.186 37.6843 116.186C35.4327 116.186 34.3373 116.486 33.4245 117.386ZM40.6662 118.225C41.0921 118.705 41.3356 120.443 41.2139 122.302L41.0313 125.479H37.6843H34.3373L34.1547 122.302C33.9113 118.405 34.6416 117.386 37.6843 117.386C38.9622 117.386 40.301 117.745 40.6662 118.225Z" fill="#98C5E9"/>
<path d="M209.903 116.786C209.903 117.146 211.729 117.386 214.102 117.386C218.484 117.386 220.127 118.225 219.396 120.083C219.153 120.743 218.118 120.983 215.502 120.983C211.181 120.983 209.721 122.122 210.025 125.299L210.207 127.278H215.563C222.135 127.278 222.743 126.139 216.293 125.899C211.911 125.719 211.729 125.659 211.729 124.28C211.729 122.901 211.972 122.781 214.711 122.781C220.309 122.781 222.622 120.743 220.614 117.685C219.701 116.306 219.214 116.186 214.771 116.186C211.911 116.186 209.903 116.426 209.903 116.786Z" fill="#98C5E9"/>
<path d="M223.9 116.966C223.9 117.446 224.326 118.165 224.812 118.585C225.482 119.124 225.725 120.503 225.725 123.441C225.725 125.899 225.969 127.578 226.334 127.578C226.76 127.578 226.942 125.779 226.821 122.721C226.638 118.405 226.456 117.745 225.299 116.906C224.082 116.127 223.9 116.127 223.9 116.966Z" fill="#98C5E9"/>
<path d="M62.5739 184.473C59.5311 187.471 60.2005 189.629 65.3123 193.466C69.2679 196.404 70.2416 197.843 69.3287 199.462C68.3551 201.32 66.5294 201.56 64.2778 200.061C60.5657 197.543 58.9834 195.744 58.9834 194.066C58.9834 192.267 57.2795 191.188 56.4275 192.447C54.9062 194.845 56.4884 197.843 60.8699 201.02C63.7301 203.059 65.1298 203.718 66.8337 203.718C70.7892 203.718 73.5277 199.522 72.0063 195.685C71.8238 195.145 69.8764 193.346 67.6857 191.668C64.7038 189.389 63.8518 188.37 63.9735 187.351C64.0952 186.572 64.6429 185.972 65.434 185.852C67.138 185.612 74.1971 190.768 74.1971 192.267C74.1971 193.586 75.7185 194.965 76.6313 194.426C76.9356 194.246 77.2398 193.226 77.2398 192.207C77.2398 190.229 74.8665 187.711 69.9981 184.473C66.5903 182.255 64.8255 182.255 62.5739 184.473Z" fill="#98C5E9"/>
<path d="M176.129 184.353C171.2 187.711 167.305 190.648 167.305 190.948C167.305 191.727 178.015 205.457 178.624 205.517C178.989 205.517 179.597 205.157 179.963 204.737C180.449 204.198 180.023 203.178 178.198 200.9C176.92 199.162 175.824 197.543 175.824 197.183C175.824 196.404 179.111 194.126 180.328 194.126C180.875 194.126 183.127 194.965 185.379 195.924C188.969 197.543 189.517 197.663 190.369 196.823C191.464 195.744 191.586 195.924 186.9 193.586C183.553 191.907 183.188 191.548 183.736 190.528C184.648 188.79 184.466 186.032 183.31 184.593C181.484 182.495 178.928 182.375 176.129 184.353ZM181.18 187.591C181.301 188.85 180.754 189.569 178.137 191.548C173.512 194.965 173.573 194.905 172.417 193.226C171.2 191.368 171.625 190.708 176.129 187.77C179.597 185.432 180.936 185.372 181.18 187.591Z" fill="#98C5E9"/>
<path d="M156.351 196.284C149.657 199.102 147.831 200.481 147.831 202.879C147.831 204.798 151.361 213.311 152.761 214.75C154.464 216.548 157.142 216.189 164.14 213.311C168.765 211.392 170.348 210.493 170.348 209.654C170.348 209.054 170.165 208.455 169.922 208.335C169.617 208.155 166.635 209.234 163.167 210.673C159.698 212.112 156.534 213.311 156.047 213.311C155.073 213.311 153.491 211.213 153.187 209.474C153.065 208.575 153.978 207.915 158.237 206.176C161.098 204.977 163.471 203.838 163.532 203.539C163.836 202.399 163.593 201.32 162.984 201.32C162.68 201.32 160.002 202.339 157.142 203.539C152.152 205.697 151.909 205.757 151.117 204.618C149.474 202.399 149.961 201.92 157.872 198.682C162.497 196.764 163.958 195.924 163.958 195.025C163.958 194.426 163.714 193.826 163.349 193.766C163.045 193.646 159.881 194.785 156.351 196.284Z" fill="#98C5E9"/>
<path d="M84.3598 196.764C81.1954 197.903 79.9174 199.162 78.7003 202.279C77.5441 205.277 77.8484 207.675 79.7349 210.733C84.4207 218.167 96.7133 214.39 96.7133 205.517C96.7133 199.282 90.2627 194.665 84.3598 196.764ZM89.5933 199.461C92.3318 200.481 93.6706 202.519 93.6706 205.517C93.6706 208.874 92.5143 210.613 89.715 211.512C83.447 213.55 78.3961 207.016 82.169 201.8C84.1164 199.162 86.6114 198.382 89.5933 199.461Z" fill="#98C5E9"/>
<path d="M135.052 202.339C129.636 203.359 127.019 204.857 125.68 207.555C123.489 212.052 125.011 217.448 129.088 219.906C131.401 221.285 133.713 221.405 140.224 220.445C143.997 219.906 144.789 219.546 144.789 218.647C144.789 216.968 144.058 216.848 138.46 217.807C132.8 218.767 131.887 218.587 129.149 216.129C127.323 214.51 126.897 212.052 127.993 209.534C129.088 206.896 131.157 205.757 136.634 204.917C142.233 204.018 142.294 203.958 141.928 202.579C141.563 201.14 141.198 201.14 135.052 202.339Z" fill="#98C5E9"/>
<path d="M106.754 203.299C100.182 206.356 99.5126 215.769 105.537 219.666C107.545 220.985 118.134 222.424 118.743 221.464C119.777 219.966 119.108 219.426 116.065 219.066C108.641 218.167 108.032 217.987 106.024 216.009C103.651 213.67 103.407 211.033 105.233 208.095C106.754 205.637 108.276 205.277 115.335 205.757C120.751 206.176 121.055 206.116 121.055 205.037C121.055 203.718 119.838 203.359 113.083 202.819C109.858 202.579 108.032 202.759 106.754 203.299Z" fill="#98C5E9"/>
</svg>
