<svg width="350" height="350" viewBox="0 0 350 350" fill="none" xmlns="http://www.w3.org/2000/svg">
<path d="M131.113 1.29883C126.465 2.80273 121.406 6.35742 117.988 10.5273C116.621 12.168 113.066 17.5 109.99 22.3535C106.982 27.1387 103.633 31.9922 102.676 33.0859C100.146 35.8203 96.5918 37.2559 86.7481 39.5801C71.6406 43.2031 66.6504 45.459 61.5918 50.9277C55.2344 57.832 53.3203 65.8984 54.5508 80.5273C55.7813 94.6094 55.6445 96.3867 53.457 100.42C52.4317 102.334 49.2188 106.709 46.2109 110.059C35.4102 122.568 31.5137 130.566 32.334 139.111C33.0859 147.109 36.2988 152.988 46.1426 164.473C49.0137 167.822 52.2266 171.924 53.1836 173.633C55.3027 177.119 55.3711 179.375 54.4141 196.191C54.0039 203.438 54.0723 207.197 54.6875 210.205C57.2168 222.51 65.3516 229.893 80.6641 233.857C83.877 234.746 86.6113 235.498 86.7481 235.566C86.8848 235.703 79.8438 252.041 71.0938 271.865C61.9336 292.715 55.0977 309.121 54.8926 310.693C54.2774 316.299 58.9942 321.289 64.8731 321.289C66.582 321.289 74.6485 320.537 82.7149 319.58C90.7813 318.623 98.2324 317.871 99.1895 317.871C100.762 317.871 102.197 319.512 109.717 329.834C122.5 347.471 123.32 348.428 126.397 349.385C127.9 349.795 130.156 350 131.523 349.727C136.787 348.701 137.061 348.291 156.201 304.814C167.275 279.59 174.453 264.209 175 264.209C175.547 264.209 182.725 279.59 193.73 304.678C203.574 326.963 212.324 345.898 213.213 346.855C216.494 350.342 222.783 350.82 226.475 347.949C227.363 347.266 232.832 340.156 238.574 332.227C247.598 319.785 249.238 317.871 250.811 317.871C251.768 317.871 259.219 318.623 267.285 319.58C275.352 320.537 283.418 321.289 285.127 321.289C291.006 321.289 295.723 316.299 295.107 310.693C294.902 309.121 288.066 292.715 278.906 271.865C270.156 252.041 263.115 235.635 263.252 235.498C263.389 235.361 266.123 234.609 269.268 233.789C285.4 229.688 293.125 222.236 295.381 208.701C295.996 204.941 295.996 201.592 295.381 194.688C293.877 176.777 294.014 176.299 303.516 165.088C311.719 155.449 314.863 150.596 316.641 144.717C319.854 133.916 316.641 125.303 303.584 110.059C300.508 106.504 297.227 101.924 296.201 99.8731L294.424 96.25L295.176 86.543C296.201 74.5801 296.201 68.7695 295.244 64.1211C293.467 55.6445 287.314 48.0566 279.18 44.3652C276.855 43.2715 269.951 41.1523 263.867 39.6484C257.715 38.0762 251.904 36.4355 250.879 35.8887C248.213 34.5215 246.367 32.0605 240.215 22.1484C231.533 8.06641 224.902 2.32422 215.469 0.615234C208.633 -0.683594 202.891 0.615234 187.646 6.9043C175.615 11.8262 174.385 11.7578 161.26 6.28906C145.947 -0.136719 139.18 -1.23047 131.113 1.29883ZM152.92 25.0195C162.969 29.1211 170.967 31.4453 174.932 31.4453C179.58 31.377 186.553 29.4629 196.67 25.4297C202.275 23.1738 207.949 21.123 209.248 20.8496C214.033 19.9609 216.494 22.4219 224.902 36.5039C226.885 39.8535 230.508 44.707 232.969 47.3047C238.779 53.457 243.906 55.918 257.441 59.1309C263.047 60.498 268.994 62.207 270.635 63.0273C275.693 65.4199 276.172 68.291 274.668 85.1074C273.232 101.787 275.42 108.281 287.383 122.637C294.629 131.318 297.363 135.488 297.363 137.949C297.363 139.795 294.15 144.58 288.135 151.416C274.941 166.729 273.096 172.334 274.736 193.662C275.762 206.445 275.283 209.248 271.729 211.367C270.566 211.982 265.234 213.623 259.902 214.99C248.897 217.725 242.744 219.912 238.848 222.373C234.473 225.107 228.252 232.422 222.715 241.377C219.844 246.025 216.426 250.879 215.059 252.178C212.939 254.229 212.393 254.434 209.727 254.16C208.086 253.955 203.574 252.52 199.609 250.879C187.578 245.957 184.023 244.795 179.033 243.975C172.471 242.949 165.977 244.385 153.125 249.58C147.588 251.768 141.709 253.818 140 254.023C137.129 254.434 136.787 254.297 134.531 252.041C133.232 250.742 129.746 245.752 126.738 240.967C123.799 236.113 119.561 230.303 117.373 227.91C111.152 221.143 106.777 219.092 90.9863 215.332C73.6231 211.162 73.5547 210.957 75.2637 189.697C76.6309 173.838 74.5117 166.729 65.1465 155.313C51.8164 139.043 51.3379 138.018 54.209 133.164C55.166 131.523 58.4473 127.285 61.5235 123.73C75.127 108.008 76.9043 102.607 75.2637 81.1426C73.8965 63.916 73.8965 63.916 91.9434 59.4043C111.768 54.4824 116.758 50.8594 126.943 33.8379C129.473 29.668 132.822 24.9512 134.463 23.3105C137.266 20.4395 137.539 20.3711 140.479 20.7129C142.188 20.9863 147.793 22.9004 152.92 25.0195ZM256.689 272.275C262.979 286.494 267.9 298.32 267.695 298.525C267.49 298.73 263.73 298.525 259.355 297.979L251.426 297.021L243.291 278.633L235.156 260.244L239.736 252.861C242.266 248.76 244.59 245.684 244.863 245.957C245.068 246.23 250.469 258.057 256.689 272.275ZM110.264 253.271L114.707 260.449L106.641 278.77L98.5742 297.021L90.6445 297.979C86.3379 298.525 82.5781 298.799 82.3047 298.594C81.8262 298.115 104.59 246.094 105.342 246.094C105.547 246.094 107.803 249.307 110.264 253.271ZM143.076 274.326C145.4 273.916 147.383 273.643 147.383 273.711C147.451 273.711 143.076 283.76 137.676 295.996C132.275 308.232 127.764 318.486 127.627 318.828C127.49 319.17 125.166 316.299 122.432 312.471L117.441 305.498L118.74 302.285C119.492 300.508 122.637 293.33 125.713 286.357L131.318 273.711L135.078 274.395C137.676 274.805 140.205 274.805 143.076 274.326ZM222.51 282.324C224.424 286.631 227.5 293.604 229.346 297.842L232.627 305.43L227.637 312.402C224.902 316.162 222.578 319.238 222.51 319.102C222.305 318.828 203.027 274.873 203.027 274.668C203.027 274.531 206.65 274.463 211.025 274.463L219.023 274.531L222.51 282.324Z" fill="#001838"/>
<path d="M163.516 48.6034C143.896 51.1327 125.439 60.4296 111.289 74.9218C104.863 81.5526 101.855 85.3808 97.6856 92.6952C77.5195 127.764 83.125 171.65 111.563 200.293C152.988 242.06 221.963 233.516 251.904 182.93C263.184 163.789 266.943 141.435 262.5 119.629C255.732 86.3378 230.371 59.4042 197.9 50.9276C186.553 47.9882 174.385 47.1679 163.516 48.6034ZM192.09 70.6151C234.404 81.6893 256.143 128.926 236.729 167.754C232.832 175.683 229.756 179.853 222.852 186.621C208.77 200.566 191.611 207.129 171.924 206.24C154.834 205.42 140.205 199.267 127.969 187.646C96.5235 158.047 99.5313 107.734 134.189 81.8944C142.803 75.537 152.236 71.5038 163.652 69.3163C170.967 67.9491 184.023 68.496 192.09 70.6151Z" fill="white"/>
<path d="M169.463 89.0723C167.686 90.2344 165.908 92.9688 161.67 101.172L156.201 111.768L145.742 113.271C140 114.023 134.326 115.117 133.232 115.596C130.84 116.553 128.242 119.834 127.559 122.568C126.465 127.217 127.559 129.062 136.582 138.086L145.127 146.631L143.213 158.047C141.709 167.344 141.504 169.873 142.119 171.787C143.486 175.82 147.998 179.102 152.236 179.102C153.193 179.102 158.73 176.641 164.541 173.701L175.068 168.232L185.527 173.701C191.27 176.641 196.807 179.102 197.764 179.102C202.002 179.102 206.514 175.82 207.881 171.719C208.496 169.805 208.291 167.412 206.719 158.184L204.873 146.973L213.418 138.291C222.373 129.062 223.535 127.148 222.441 122.568C221.758 119.834 219.16 116.553 216.768 115.596C215.674 115.117 210 114.023 204.258 113.271L193.799 111.768L188.33 101.172C182.109 89.1406 180.537 87.5 175 87.5C172.812 87.5 171.035 87.9785 169.463 89.0723ZM176.982 124.756C179.033 128.721 181.426 130.361 186.006 131.25C187.92 131.66 189.697 131.934 189.902 131.934C190.039 131.934 188.945 133.301 187.441 134.941C184.16 138.496 183.066 141.982 183.887 146.289C184.16 147.998 184.365 149.434 184.297 149.57C184.16 149.639 182.451 148.955 180.4 147.998C178.35 147.041 175.957 146.289 175 146.289C174.043 146.289 171.65 147.041 169.6 147.998C167.549 148.955 165.84 149.639 165.703 149.57C165.635 149.434 165.84 147.998 166.113 146.289C166.934 141.982 165.84 138.496 162.559 134.941C161.055 133.301 159.961 131.934 160.098 131.934C160.303 131.934 162.08 131.66 163.994 131.25C168.574 130.361 170.967 128.721 173.018 124.756C173.906 123.047 174.795 121.68 175 121.68C175.205 121.68 176.094 123.047 176.982 124.756Z" fill="#001838"/>
</svg>
