<svg width="350" height="350" viewBox="0 0 350 350" fill="none" xmlns="http://www.w3.org/2000/svg">
<rect width="350" height="350" fill="#98C5E9" fill-opacity="0.3"/>
<path d="M182.365 215.837C182.97 216.109 183.575 216.381 184.199 216.661C185.186 217.124 185.186 217.124 186.194 217.596C186.912 217.923 187.631 218.249 188.371 218.585C190.026 219.337 191.679 220.093 193.33 220.854C196.546 222.334 199.773 223.791 203.001 225.247C207.969 227.489 212.936 229.736 217.901 231.987C223.561 234.552 229.227 237.104 234.9 239.642C240.432 242.118 245.963 244.597 251.49 247.082C252.08 247.347 252.67 247.612 253.278 247.885C256.269 249.23 259.259 250.576 262.248 251.926C267.166 254.147 272.084 256.364 277.037 258.508C277.738 258.815 278.439 259.122 279.161 259.438C280.388 259.974 281.618 260.501 282.853 261.018C286.371 262.567 288.335 264.101 290.527 267.285C291.399 269.899 291.323 272.365 291.332 275.089C291.336 275.676 291.341 276.263 291.346 276.868C291.359 278.812 291.367 280.756 291.374 282.701C291.377 283.365 291.379 284.029 291.382 284.713C291.397 288.229 291.406 291.744 291.413 295.259C291.42 298.889 291.444 302.518 291.471 306.148C291.489 308.94 291.495 311.732 291.497 314.524C291.5 315.862 291.508 317.2 291.521 318.537C291.538 320.411 291.537 322.284 291.532 324.158C291.545 324.984 291.545 324.984 291.559 325.827C291.526 329.417 290.827 331.416 288.477 334.277C285.436 337.021 283.191 337.931 279.052 337.863C276.318 337.56 273.995 336.443 271.515 335.303C270.909 335.034 270.303 334.765 269.679 334.488C267.508 333.519 265.346 332.533 263.184 331.543C262.314 331.147 261.445 330.75 260.576 330.354C256.634 328.557 252.695 326.756 248.758 324.948C241.612 321.668 234.443 318.446 227.252 315.265C216.135 310.346 205.057 305.342 193.991 300.308C192.329 299.556 190.663 298.812 188.996 298.069C187.042 297.193 185.119 296.278 183.21 295.308C178.308 292.791 178.308 292.791 173.003 293.216C171.885 293.753 170.786 294.326 169.702 294.928C168.338 295.598 166.974 296.266 165.609 296.933C164.453 297.519 164.453 297.519 163.273 298.116C158.545 300.482 153.686 302.579 148.861 304.738C145.73 306.143 142.607 307.563 139.483 308.982C131.274 312.705 123.054 316.405 114.833 320.101C114.28 320.349 113.727 320.598 113.157 320.854C112.037 321.358 110.916 321.861 109.796 322.365C106.136 324.01 102.478 325.659 98.8202 327.309C96.2733 328.458 93.7261 329.607 91.1789 330.755C89.9594 331.305 88.74 331.855 87.5208 332.406C85.8365 333.167 84.1516 333.927 82.4665 334.686C81.9659 334.912 81.4653 335.139 80.9494 335.372C76.678 337.295 72.8804 338.693 68.2499 337.228C64.9695 335.75 63.221 334.118 61.5235 330.859C60.5939 328.189 60.7288 325.423 60.7189 322.63C60.7144 322.078 60.7099 321.527 60.7053 320.958C60.6918 319.135 60.6838 317.312 60.677 315.489C60.6742 314.865 60.6714 314.241 60.6685 313.598C60.6543 310.294 60.6445 306.99 60.6381 303.686C60.6305 300.281 60.607 296.876 60.5799 293.471C60.562 290.846 60.5563 288.221 60.5538 285.596C60.5505 284.341 60.5426 283.087 60.5299 281.832C60.5131 280.072 60.5139 278.312 60.5186 276.552C60.5098 276.039 60.5011 275.526 60.4921 274.997C60.5287 271.24 61.5183 268.388 63.5742 265.234C65.7605 263.115 68.0613 261.864 70.8161 260.601C71.5657 260.255 72.3154 259.909 73.0878 259.553C73.8961 259.186 74.7044 258.819 75.5371 258.441C76.3982 258.046 77.2592 257.651 78.12 257.256C85.9935 253.648 93.8996 250.111 101.809 246.581C107.019 244.254 112.222 241.911 117.425 239.568C119.161 238.787 120.896 238.006 122.632 237.226C128.032 234.796 133.432 232.364 138.829 229.924C141.259 228.826 143.689 227.729 146.12 226.633C147.261 226.117 148.402 225.601 149.542 225.085C152.701 223.654 155.864 222.235 159.034 220.832C160.148 220.337 161.261 219.839 162.372 219.338C164.109 218.557 165.851 217.79 167.595 217.025C168.12 216.786 168.644 216.547 169.184 216.301C173.681 214.358 177.736 213.705 182.365 215.837ZM171.08 228.35C170.604 228.568 170.129 228.786 169.638 229.011C168.606 229.485 167.575 229.96 166.543 230.434C163.787 231.703 161.029 232.966 158.271 234.23C157.713 234.485 157.155 234.741 156.58 235.004C151.751 237.214 146.909 239.397 142.059 241.565C140.88 242.092 140.88 242.092 139.676 242.63C138.437 243.184 137.198 243.738 135.959 244.292C130.212 246.862 124.472 249.448 118.732 252.032C117.58 252.551 116.428 253.069 115.276 253.588C109.8 256.052 104.325 258.517 98.8505 260.984C96.3405 262.115 93.8303 263.245 91.3201 264.375C90.1232 264.915 88.9264 265.454 87.7296 265.993C86.0644 266.744 84.399 267.494 82.7336 268.244C82.247 268.463 81.7604 268.683 81.2591 268.909C80.5693 269.219 80.5693 269.219 79.8655 269.536C79.2765 269.801 79.2765 269.801 78.6756 270.072C76.6115 270.983 74.5347 271.865 72.461 272.754C72.461 290.124 72.461 307.494 72.461 325.391C75.5197 324.779 77.9658 323.865 80.7495 322.56C81.4573 322.234 81.4573 322.234 82.1794 321.901C83.1955 321.432 84.2108 320.962 85.2255 320.49C87.3918 319.483 89.5618 318.485 91.7316 317.486C92.8388 316.976 93.9458 316.465 95.0527 315.955C99.855 313.741 104.675 311.568 109.503 309.412C111.114 308.692 112.725 307.971 114.336 307.251C114.957 306.974 114.957 306.974 115.591 306.691C119.088 305.127 122.582 303.554 126.075 301.98C126.638 301.727 127.2 301.473 127.78 301.212C128.35 300.955 128.92 300.698 129.507 300.434C139.403 295.974 149.305 291.525 159.222 287.111C160.306 286.629 161.39 286.146 162.474 285.663C163.969 284.997 165.464 284.332 166.96 283.667C167.621 283.372 167.621 283.372 168.296 283.071C172.502 281.207 176.163 280.032 180.684 281.455C182.548 282.221 184.37 283.05 186.194 283.905C186.912 284.231 187.631 284.557 188.371 284.893C190.026 285.646 191.679 286.401 193.33 287.162C196.546 288.643 199.773 290.099 203.001 291.555C207.969 293.798 212.936 296.044 217.901 298.295C224.321 301.205 230.75 304.094 237.184 306.973C245.735 310.8 254.276 314.647 262.817 318.493C263.384 318.749 263.952 319.004 264.537 319.268C265.595 319.744 266.653 320.221 267.71 320.697C268.673 321.131 269.637 321.563 270.6 321.995C271.654 322.469 272.706 322.947 273.756 323.429C274.308 323.679 274.86 323.93 275.429 324.189C275.931 324.419 276.433 324.649 276.95 324.885C278.206 325.475 278.206 325.475 279.59 325.391C279.59 308.02 279.59 290.65 279.59 272.754C268.45 267.582 257.32 262.428 246.104 257.429C240.306 254.842 234.517 252.235 228.728 249.627C206.247 239.495 206.247 239.495 183.716 229.474C182.982 229.149 182.249 228.824 181.493 228.49C180.827 228.197 180.161 227.904 179.475 227.602C178.889 227.343 178.303 227.085 177.699 226.819C175.195 225.786 173.401 227.278 171.08 228.35Z" fill="white"/>
<path d="M182.365 114.665C182.97 114.937 183.575 115.209 184.199 115.49C185.186 115.952 185.186 115.952 186.194 116.425C186.912 116.751 187.631 117.077 188.371 117.413C190.026 118.165 191.679 118.921 193.33 119.682C196.546 121.162 199.773 122.619 203.001 124.075C207.969 126.317 212.936 128.564 217.901 130.815C223.561 133.38 229.227 135.932 234.9 138.47C240.432 140.946 245.963 143.425 251.49 145.91C252.08 146.175 252.67 146.44 253.278 146.713C256.269 148.058 259.259 149.405 262.248 150.755C267.166 152.976 272.084 155.193 277.037 157.336C277.738 157.643 278.439 157.95 279.161 158.266C280.388 158.802 281.618 159.33 282.853 159.847C286.371 161.395 288.335 162.929 290.527 166.113C291.399 168.727 291.323 171.193 291.332 173.917C291.336 174.504 291.341 175.091 291.346 175.696C291.359 177.64 291.367 179.584 291.374 181.529C291.377 182.193 291.379 182.857 291.382 183.542C291.397 187.057 291.406 190.572 291.413 194.087C291.42 197.717 291.444 201.346 291.471 204.976C291.489 207.768 291.495 210.56 291.497 213.352C291.5 214.69 291.508 216.028 291.521 217.366C291.538 219.239 291.537 221.112 291.532 222.986C291.545 223.812 291.545 223.812 291.559 224.655C291.526 228.245 290.827 230.244 288.477 233.105C285.436 235.849 283.191 236.759 279.052 236.692C276.318 236.388 273.995 235.271 271.515 234.131C270.909 233.862 270.303 233.593 269.679 233.317C267.508 232.348 265.346 231.361 263.184 230.371C262.314 229.975 261.445 229.578 260.576 229.182C256.634 227.385 252.695 225.584 248.758 223.776C241.612 220.496 234.443 217.274 227.252 214.093C216.135 209.174 205.057 204.171 193.991 199.137C192.329 198.384 190.663 197.64 188.996 196.897C187.042 196.022 185.119 195.106 183.21 194.136C178.308 191.619 178.308 191.619 173.003 192.044C171.885 192.581 170.786 193.155 169.702 193.756C168.338 194.426 166.974 195.094 165.609 195.761C164.453 196.347 164.453 196.347 163.273 196.944C158.545 199.31 153.686 201.407 148.861 203.566C145.73 204.971 142.607 206.391 139.483 207.81C131.274 211.533 123.054 215.233 114.833 218.929C114.28 219.177 113.727 219.426 113.157 219.682C112.037 220.186 110.916 220.689 109.796 221.193C106.136 222.839 102.478 224.487 98.8202 226.137C96.2733 227.286 93.7261 228.435 91.1789 229.583C89.9594 230.133 88.74 230.684 87.5208 231.234C85.8365 231.995 84.1516 232.755 82.4665 233.514C81.9659 233.74 81.4653 233.967 80.9494 234.2C76.678 236.123 72.8804 237.521 68.2499 236.056C64.9695 234.578 63.221 232.947 61.5235 229.687C60.5939 227.017 60.7288 224.252 60.7189 221.458C60.7144 220.907 60.7099 220.355 60.7053 219.787C60.6918 217.963 60.6838 216.14 60.677 214.317C60.6742 213.693 60.6714 213.069 60.6685 212.426C60.6543 209.122 60.6445 205.818 60.6381 202.514C60.6305 199.109 60.607 195.704 60.5799 192.299C60.562 189.674 60.5563 187.049 60.5538 184.424C60.5505 183.17 60.5426 181.915 60.5299 180.66C60.5131 178.9 60.5139 177.14 60.5186 175.38C60.5098 174.867 60.5011 174.354 60.4921 173.825C60.5287 170.068 61.5183 167.216 63.5742 164.062C65.7605 161.944 68.0613 160.692 70.8161 159.429C71.5657 159.083 72.3154 158.737 73.0878 158.381C73.8961 158.014 74.7044 157.647 75.5371 157.269C76.3982 156.875 77.2592 156.479 78.12 156.084C85.9935 152.476 93.8996 148.939 101.809 145.409C107.019 143.082 112.222 140.739 117.425 138.396C119.161 137.615 120.896 136.834 122.632 136.054C128.032 133.624 133.432 131.192 138.829 128.753C141.259 127.654 143.689 126.557 146.12 125.461C147.261 124.945 148.402 124.429 149.542 123.913C152.701 122.483 155.864 121.063 159.034 119.66C160.148 119.166 161.261 118.667 162.372 118.166C164.109 117.385 165.851 116.618 167.595 115.853C168.12 115.614 168.644 115.375 169.184 115.129C173.681 113.186 177.736 112.533 182.365 114.665ZM171.08 127.178C170.604 127.396 170.129 127.615 169.638 127.84C168.606 128.313 167.575 128.788 166.543 129.263C163.787 130.531 161.029 131.794 158.271 133.058C157.713 133.313 157.155 133.569 156.58 133.832C151.751 136.043 146.909 138.225 142.059 140.393C140.88 140.92 140.88 140.92 139.676 141.458C138.437 142.012 137.198 142.566 135.959 143.12C130.212 145.69 124.472 148.276 118.732 150.861C117.58 151.379 116.428 151.897 115.276 152.416C109.8 154.88 104.325 157.346 98.8505 159.812C96.3405 160.943 93.8303 162.073 91.3201 163.204C90.1232 163.743 88.9264 164.282 87.7296 164.821C86.0644 165.572 84.399 166.322 82.7336 167.072C82.247 167.291 81.7604 167.511 81.2591 167.737C80.5693 168.047 80.5693 168.047 79.8655 168.364C79.2765 168.629 79.2765 168.629 78.6756 168.9C76.6115 169.811 74.5347 170.693 72.461 171.582C72.461 188.952 72.461 206.322 72.461 224.219C75.5197 223.607 77.9658 222.693 80.7495 221.388C81.4573 221.062 81.4573 221.062 82.1794 220.729C83.1955 220.261 84.2108 219.79 85.2255 219.319C87.3918 218.312 89.5618 217.313 91.7316 216.314C92.8388 215.804 93.9458 215.294 95.0527 214.783C99.855 212.569 104.675 210.396 109.503 208.24C111.114 207.52 112.725 206.8 114.336 206.079C114.957 205.802 114.957 205.802 115.591 205.519C119.088 203.955 122.582 202.383 126.075 200.808C126.638 200.555 127.2 200.301 127.78 200.04C128.35 199.783 128.92 199.526 129.507 199.262C139.403 194.802 149.305 190.353 159.222 185.94C160.306 185.457 161.39 184.974 162.474 184.491C163.969 183.825 165.464 183.16 166.96 182.495C167.621 182.2 167.621 182.2 168.296 181.9C172.502 180.035 176.163 178.86 180.684 180.283C182.548 181.049 184.37 181.878 186.194 182.733C186.912 183.059 187.631 183.385 188.371 183.721C190.026 184.474 191.679 185.23 193.33 185.991C196.546 187.471 199.773 188.927 203.001 190.383C207.969 192.626 212.936 194.873 217.901 197.123C224.321 200.033 230.75 202.922 237.184 205.801C245.735 209.628 254.276 213.475 262.817 217.322C263.384 217.577 263.952 217.833 264.537 218.096C265.595 218.572 266.653 219.049 267.71 219.525C268.673 219.959 269.637 220.392 270.6 220.823C271.654 221.297 272.706 221.775 273.756 222.257C274.308 222.508 274.86 222.758 275.429 223.017C275.931 223.247 276.433 223.477 276.95 223.714C278.206 224.303 278.206 224.303 279.59 224.219C279.59 206.849 279.59 189.478 279.59 171.582C268.45 166.41 257.32 161.256 246.104 156.257C240.306 153.67 234.517 151.063 228.728 148.456C206.247 138.323 206.247 138.323 183.716 128.302C182.982 127.977 182.249 127.653 181.493 127.318C180.827 127.025 180.161 126.732 179.475 126.43C178.889 126.172 178.303 125.913 177.699 125.647C175.195 124.614 173.401 126.106 171.08 127.178Z" fill="#001838"/>
<path d="M182.365 13.4929C182.97 13.7651 183.575 14.0373 184.199 14.3177C185.186 14.7805 185.186 14.7805 186.194 15.2526C186.912 15.5788 187.631 15.9049 188.371 16.241C190.026 16.9932 191.679 17.7491 193.33 18.51C196.546 19.9904 199.773 21.4469 203.001 22.903C207.969 25.1454 212.936 27.3921 217.901 29.6428C223.561 32.208 229.227 34.76 234.9 37.2985C240.432 39.7745 245.963 42.2531 251.49 44.7379C252.08 45.0031 252.67 45.2683 253.278 45.5414C256.269 46.8861 259.259 48.2327 262.248 49.5827C267.166 51.8037 272.084 54.0207 277.037 56.1641C277.738 56.471 278.439 56.778 279.161 57.0942C280.388 57.63 281.618 58.1577 282.853 58.6747C286.371 60.2232 288.335 61.7574 290.527 64.9413C291.399 67.5549 291.323 70.0208 291.332 72.7448C291.336 73.3319 291.341 73.919 291.346 74.5239C291.359 76.4682 291.367 78.4126 291.374 80.3569C291.377 81.0211 291.379 81.6854 291.382 82.3697C291.397 85.8848 291.406 89.4 291.413 92.9151C291.42 96.5448 291.444 100.174 291.471 103.804C291.489 106.596 291.495 109.388 291.497 112.18C291.5 113.518 291.508 114.856 291.521 116.194C291.538 118.067 291.537 119.94 291.532 121.814C291.545 122.64 291.545 122.64 291.559 123.483C291.526 127.073 290.827 129.072 288.477 131.934C285.436 134.677 283.191 135.587 279.052 135.52C276.318 135.216 273.995 134.099 271.515 132.959C270.909 132.69 270.303 132.422 269.679 132.145C267.508 131.176 265.346 130.189 263.184 129.199C262.314 128.803 261.445 128.407 260.576 128.011C256.634 126.214 252.695 124.413 248.758 122.604C241.612 119.324 234.443 116.103 227.252 112.921C216.135 108.002 205.057 102.999 193.991 97.9647C192.329 97.2119 190.663 96.4682 188.996 95.7249C187.042 94.8497 185.119 93.9341 183.21 92.9642C178.308 90.4476 178.308 90.4476 173.003 90.8725C171.885 91.4089 170.786 91.9827 169.702 92.5842C168.338 93.2543 166.974 93.9226 165.609 94.5896C164.453 95.1749 164.453 95.1749 163.273 95.7722C158.545 98.138 153.686 100.235 148.861 102.395C145.73 103.799 142.607 105.219 139.483 106.638C131.274 110.361 123.054 114.061 114.833 117.757C114.28 118.005 113.727 118.254 113.157 118.51C112.037 119.014 110.916 119.517 109.796 120.021C106.136 121.667 102.478 123.315 98.8202 124.965C96.2733 126.115 93.7261 127.263 91.1789 128.411C89.9594 128.961 88.74 129.512 87.5208 130.062C85.8365 130.823 84.1516 131.583 82.4665 132.342C81.9659 132.569 81.4653 132.795 80.9494 133.029C76.678 134.951 72.8804 136.35 68.2499 134.884C64.9695 133.407 63.221 131.775 61.5235 128.516C60.5939 125.845 60.7288 123.08 60.7189 120.286C60.7144 119.735 60.7099 119.183 60.7053 118.615C60.6918 116.792 60.6838 114.969 60.677 113.145C60.6742 112.521 60.6714 111.897 60.6685 111.254C60.6543 107.95 60.6445 104.646 60.6381 101.342C60.6305 97.937 60.607 94.5323 60.5799 91.1274C60.562 88.5024 60.5563 85.8775 60.5538 83.2525C60.5505 81.9977 60.5426 80.743 60.5299 79.4883C60.5131 77.7279 60.5139 75.9683 60.5186 74.2079C60.5098 73.6949 60.5011 73.182 60.4921 72.6534C60.5287 68.8961 61.5183 66.0442 63.5742 62.8906C65.7605 60.7717 68.0613 59.5199 70.8161 58.2576C71.5657 57.9116 72.3154 57.5655 73.0878 57.209C73.8961 56.8422 74.7044 56.4753 75.5371 56.0974C76.3982 55.7026 77.2592 55.3076 78.12 54.9123C85.9935 51.3038 93.8996 47.7669 101.809 44.2371C107.019 41.9105 112.222 39.5672 117.425 37.2244C119.161 36.4433 120.896 35.6625 122.632 34.8818C128.032 32.4518 133.432 30.0198 138.829 27.5807C141.259 26.4825 143.689 25.3856 146.12 24.2888C147.261 23.7735 148.402 23.2576 149.542 22.7411C152.701 21.3107 155.864 19.8913 159.034 18.4883C160.148 17.9936 161.261 17.4954 162.372 16.9944C164.109 16.2132 165.851 15.4459 167.595 14.6812C168.12 14.4424 168.644 14.2036 169.184 13.9576C173.681 12.0141 177.736 11.3616 182.365 13.4929ZM171.08 26.0059C170.604 26.2243 170.129 26.4427 169.638 26.6677C168.606 27.1415 167.575 27.6159 166.543 28.0907C163.787 29.3589 161.029 30.6225 158.271 31.8859C157.713 32.1414 157.155 32.3969 156.58 32.6602C151.751 34.8707 146.909 37.0533 142.059 39.2211C140.88 39.7485 140.88 39.7485 139.676 40.2866C138.437 40.8405 137.198 41.3944 135.959 41.9482C130.212 44.518 124.472 47.1044 118.732 49.6887C117.58 50.2071 116.428 50.7255 115.276 51.2439C109.8 53.7084 104.325 56.1737 98.8505 58.6402C96.3405 59.7709 93.8303 60.9013 91.3201 62.0317C90.1232 62.5708 88.9264 63.1101 87.7296 63.6495C86.0644 64.4 84.399 65.1501 82.7336 65.9C82.247 66.1195 81.7604 66.339 81.2591 66.5651C80.5693 66.8755 80.5693 66.8755 79.8655 67.1922C79.2765 67.4576 79.2765 67.4576 78.6756 67.7284C76.6115 68.6394 74.5347 69.5213 72.461 70.4101C72.461 87.7802 72.461 105.15 72.461 123.047C75.5197 122.435 77.9658 121.521 80.7495 120.216C81.4573 119.89 81.4573 119.89 82.1794 119.557C83.1955 119.089 84.2108 118.618 85.2255 118.147C87.3918 117.14 89.5618 116.141 91.7316 115.142C92.8388 114.632 93.9458 114.122 95.0527 113.611C99.855 111.397 104.675 109.224 109.503 107.068C111.114 106.348 112.725 105.628 114.336 104.908C114.957 104.63 114.957 104.63 115.591 104.347C119.088 102.783 122.582 101.211 126.075 99.6364C126.638 99.3828 127.2 99.1292 127.78 98.8679C128.35 98.6111 128.92 98.3544 129.507 98.0898C139.403 93.6298 149.305 89.1814 159.222 84.7677C160.306 84.2851 161.39 83.8022 162.474 83.319C163.969 82.6528 165.464 81.988 166.96 81.3236C167.621 81.0286 167.621 81.0286 168.296 80.7277C172.502 78.8632 176.163 77.6881 180.684 79.1116C182.548 79.8768 184.37 80.7065 186.194 81.5612C186.912 81.8874 187.631 82.2135 188.371 82.5496C190.026 83.3018 191.679 84.0577 193.33 84.8186C196.546 86.299 199.773 87.7555 203.001 89.2116C207.969 91.454 212.936 93.7007 217.901 95.9514C224.321 98.8609 230.75 101.75 237.184 104.629C245.735 108.456 254.276 112.303 262.817 116.15C263.384 116.405 263.952 116.661 264.537 116.924C265.595 117.4 266.653 117.877 267.71 118.353C268.673 118.787 269.637 119.22 270.6 119.651C271.654 120.125 272.706 120.604 273.756 121.085C274.308 121.336 274.86 121.587 275.429 121.845C275.931 122.075 276.433 122.305 276.95 122.542C278.206 123.131 278.206 123.131 279.59 123.047C279.59 105.677 279.59 88.3066 279.59 70.4101C268.441 65.2336 257.3 60.0755 246.075 55.072C240.43 52.5529 234.793 50.016 229.156 47.478C227.423 46.698 225.691 45.9183 223.958 45.1387C218.526 42.6942 213.095 40.2485 207.665 37.7993C205.202 36.6883 202.738 35.5779 200.274 34.4676C199.11 33.9427 197.946 33.4174 196.782 32.8918C184.082 25.7747 184.082 25.7747 171.08 26.0059Z" fill="white"/>
</svg>
